<svg width="726" height="464" fill="none" xmlns="http://www.w3.org/2000/svg"><path d="M573.288 308.493C400.973 330.454 -180.934 211.946 62.3723 133.131C284.025 61.3307 292.098 139.035 263.476 199.188M263.476 199.188C260.68 205.064 257.534 210.773 254.202 216.159C251.087 216.685 248.58 214.027 263.476 199.188Z" stroke="#653EB3" stroke-width="10" stroke-linecap="round"/><path fill-rule="evenodd" clip-rule="evenodd" d="M705.487 293.535C705.839 293.835 706.162 294.167 706.453 294.527C709.877 302.206 698.576 308.24 688.64 306.936C688.324 297.986 692.727 293.106 697.455 291.861C695.938 294.04 695.891 297.278 697.44 299.421C699.14 301.762 702.116 301.918 704.087 299.77C705.572 298.14 706.056 295.674 705.487 293.535ZM679.69 295.35C680.941 298.869 681.473 302.787 681.194 306.836C661.433 309.43 641.637 298.777 648.474 283.576C657.883 279.174 665.991 280.253 671.79 284.453C670.953 284.756 670.162 285.245 669.464 285.917C666.627 288.639 666.363 293.282 668.858 296.279C671.367 299.279 675.709 299.507 678.533 296.787C678.978 296.359 679.366 295.876 679.69 295.35ZM678.919 310.853C680.894 309.653 686.968 310.361 687.787 312.252C686.831 314.668 684.611 316.225 682.649 316.976C680.852 315.958 678.8 313.526 678.919 310.853ZM608.187 298.141L607.834 298.25L581.733 301.276C560.105 305.557 541.963 313.761 530.075 324.498C518.731 333.481 519.58 346.626 534.078 338.378C534.765 337.988 535.509 337.55 536.31 337.078C542.36 333.519 551.688 328.031 564.52 326.461C540.271 339.216 529.884 349.057 530.2 358.153C530.349 363.006 536.399 362.004 544.795 356.595C566.481 342.628 600.583 336.467 637.356 338.398C662.067 339.695 684.7 345.255 703.031 353.622C714.375 358.813 719.987 348.901 692.201 332.267C718.298 346.734 727.753 340.956 717.394 330.985C713.304 327.04 708.488 323.339 703.065 319.949L703.16 319.879C703.441 319.673 703.722 319.467 703.995 319.256C709.07 315.201 711.854 310.338 712.267 304.748C712.565 299.808 710.964 295.009 707.53 290.424C708.75 283.455 707.324 276.2 704.729 268.685C698.66 270.773 693.095 273.709 689.33 277.175C687.876 276.589 686.354 276.035 684.734 275.511C682.228 274.727 679.61 274.082 676.901 273.613C674.784 266.314 668.437 256.232 660.588 249.799C653.595 258.31 651.149 264.912 647.566 276.037C638.571 279.606 631.484 286.346 630.81 295.065C630.7 296.192 630.703 297.328 630.816 298.454C629.567 298.365 628.336 298.279 627.089 298.214C620.664 297.877 614.35 297.859 608.187 298.141Z" fill="#653EB3"/></svg>