<svg width="131" height="53" viewBox="0 0 131 53" fill="inherit" xmlns="http://www.w3.org/2000/svg">
<path fill-rule="evenodd" clip-rule="evenodd" d="M36.0424 23.2653C35.9892 23.2059 35.9306 23.1516 35.8673 23.1031C35.9846 23.4662 35.9236 23.8952 35.683 24.1891C35.3634 24.5768 34.8502 24.5768 34.5367 24.1891C34.251 23.8343 34.2298 23.2764 34.471 22.8877C33.6691 23.1447 32.956 24.0245 33.0912 25.5623C34.8117 25.697 36.7006 24.5561 36.0424 23.2653ZM31.8098 25.6124C31.8211 24.9128 31.6943 24.2432 31.4474 23.6488C31.3965 23.7422 31.334 23.8289 31.2615 23.9066C30.8003 24.4003 30.0516 24.4003 29.5931 23.9066C29.1369 23.4132 29.1404 22.6116 29.6036 22.1173C29.7177 21.9954 29.8493 21.904 29.9906 21.8444C28.9552 21.1737 27.5512 21.0613 25.9729 21.904C24.9344 24.5826 28.4349 26.2376 31.8098 25.6124ZM32.9925 26.4851C32.8345 26.1671 31.7836 26.1 31.4548 26.3245C31.4585 26.7856 31.8333 27.1857 32.1515 27.3447C32.4822 27.1977 32.8498 26.9096 32.9925 26.4851ZM18.3477 36.2874C17.7524 35.4193 17.8849 33.6994 18.766 33.0836C19.5784 32.517 20.9925 32.5562 21.662 33.7434C23.4237 36.2116 24.3232 38.8691 26.3881 39.8178C31.4939 42.1649 37.1179 39.8395 41.2621 32.645L41.8387 31.6417C45.0577 26.0579 45.1873 21.3181 43.3129 18.0647C41.4385 14.8118 37.278 12.5543 30.8463 12.5543L29.6879 12.5567C22.1673 12.5567 17.4455 15.6161 16.2812 20.4349C15.7517 22.6277 16.1067 25.185 19.1165 24.7973L19.1762 24.7753C20.2334 24.6711 21.3195 24.6171 22.4274 24.6171C22.6424 24.6171 22.855 24.6208 23.0705 24.6248C23.0409 24.4319 23.0303 24.2365 23.0388 24.0415C23.0761 22.5345 24.234 21.3102 25.7486 20.6145C26.2645 18.667 26.6255 17.5085 27.7511 15.9802C29.1591 17.0166 30.3416 18.6949 30.7715 19.9321C31.2417 19.9883 31.6978 20.0758 32.1357 20.1881C32.4191 20.2637 32.6858 20.3453 32.9412 20.433C33.5574 19.8023 34.4879 19.2466 35.5126 18.8324C36.0269 20.1025 36.3375 21.3385 36.1906 22.5493C36.8226 23.3075 37.1412 24.1191 37.1345 24.9722C37.1139 25.9381 36.6792 26.8004 35.843 27.5443C35.7929 27.5875 35.7411 27.6296 35.6893 27.672C36.6525 28.2065 37.5141 28.8001 38.2531 29.4422C40.1246 31.0651 38.5507 32.1452 33.9322 29.8906C38.8608 32.503 37.9853 34.2599 35.9875 33.4689C32.7595 32.1942 28.8171 31.4416 24.5559 31.4416C18.2146 31.4416 12.4057 32.8104 8.80236 35.4105C7.40732 36.4175 6.37596 36.6446 6.30649 35.8107C6.16995 34.2477 7.8674 32.4598 11.9223 30.0451C9.4394 30.4823 7.77443 31.7443 6.79484 32.3715C4.37609 33.9223 4.11145 31.6671 5.98111 30.0183C7.92867 28.0626 10.9744 26.4864 14.6551 25.5541C13.3588 24.3682 13.0733 22.0498 13.6068 19.8158C15.0507 13.7871 20.8599 9.80703 29.686 9.80703L30.8434 9.80518C45.3619 9.80518 51.4685 20.4264 44.2165 33.0155L43.6373 34.0185C36.9011 45.7132 25.7357 46.6301 18.3477 36.2874ZM59.7542 29.412C60.1728 29.1401 60.5093 28.7453 60.7626 28.2293C61.0143 27.7088 61.1427 27.0789 61.149 26.3356C61.1469 25.6156 61.0286 24.9936 60.798 24.4663C60.5653 23.94 60.2465 23.5348 59.8353 23.2433C59.4246 22.9555 58.9463 22.8082 58.3996 22.8034C57.9243 22.8006 57.4571 22.9274 57.0481 23.1704C56.6298 23.4169 56.2901 23.8038 56.0297 24.3269C55.7711 24.8516 55.6388 25.5255 55.6314 26.3542C55.6314 26.7941 55.6872 27.2207 55.8018 27.6293C55.9154 28.0425 56.0844 28.41 56.3136 28.7386C56.5333 29.0616 56.8244 29.3292 57.1643 29.5204C57.504 29.7154 57.9012 29.8145 58.3571 29.8177C58.87 29.8161 59.3359 29.681 59.7542 29.412ZM52.9705 35.0692V23.533C52.9697 23.3668 52.928 23.2433 52.8461 23.1649C52.7642 23.0849 52.6462 23.0464 52.494 23.0472H52.3057C51.7086 22.994 51.2382 22.4815 51.2382 21.8555C51.2382 21.2455 51.6872 20.7399 52.2682 20.6683H54.0724C54.5763 20.6747 54.9334 20.7786 55.1478 20.9768C55.3594 21.1766 55.4635 21.4342 55.4592 21.7485V22.1876H55.5015C55.4996 22.1836 55.539 22.1213 55.6182 22.0021C55.6975 21.8836 55.8211 21.7371 55.9935 21.5614C56.1626 21.3859 56.3871 21.2092 56.6625 21.0335C56.933 20.857 57.2655 20.7086 57.654 20.5917C58.0423 20.4712 58.4912 20.4092 59.0063 20.4052C60.0054 20.4131 60.873 20.6633 61.6051 21.1551C62.3388 21.6501 62.9046 22.3341 63.3071 23.2147C63.7064 24.0934 63.91 25.1193 63.9156 26.2903C63.9082 27.487 63.6863 28.5245 63.2492 29.4038C62.8111 30.2825 62.2147 30.9609 61.457 31.4422C60.6958 31.9237 59.8292 32.1701 58.8549 32.1751C58.3109 32.1683 57.8365 32.0909 57.4403 31.9441C57.0405 31.7973 56.7161 31.6266 56.4552 31.4371C56.1993 31.2463 56.0057 31.0762 55.8821 30.9289C55.7582 30.782 55.6946 30.7068 55.6951 30.6986H55.6507C55.6541 30.7028 55.6613 30.7945 55.674 30.9678C55.6861 31.1427 55.6946 31.3791 55.6951 31.6674V35.0772C55.6132 35.7712 55.0351 36.3052 54.3349 36.3052C53.6284 36.3052 53.0508 35.7672 52.9705 35.0692ZM65.8032 31.7133C65.5668 31.474 65.4538 31.0932 65.4564 30.5695V19.289C65.4562 19.1247 65.4131 19.0033 65.3315 18.9238C65.247 18.843 65.1295 18.8019 64.9781 18.804H64.6398C64.0778 18.7124 63.6515 18.221 63.6515 17.6237C63.6515 16.9655 64.1784 16.4315 64.8294 16.4315V16.4302H66.7379C67.2458 16.427 67.6208 16.5468 67.8609 16.7871C68.1018 17.0341 68.2175 17.4112 68.2154 17.924V29.2238C68.2164 29.382 68.2589 29.5005 68.3395 29.5829C68.4232 29.6653 68.5402 29.7077 68.6952 29.7085H69.0191C69.2925 29.7601 69.5394 29.9061 69.7168 30.1212C69.8942 30.3363 69.9909 30.607 69.9902 30.8862C69.9902 31.4771 69.5631 31.9711 69.0045 32.0652H66.9339C66.4154 32.0681 66.0391 31.9496 65.8032 31.7133ZM76.3173 29.6338C76.6297 29.4614 76.9038 29.2268 77.1228 28.9445C77.3479 28.6612 77.5254 28.3431 77.6484 28.0025C77.7736 27.6601 77.8365 27.3177 77.8365 26.9751V26.7119H77.3547C76.9842 26.7079 76.5851 26.7283 76.1556 26.7662C75.7243 26.8081 75.3184 26.886 74.9307 27.0047C74.5432 27.1219 74.2255 27.297 73.9764 27.5321C73.7308 27.7666 73.6009 28.0743 73.5935 28.4604C73.5935 28.7121 73.6566 28.9464 73.7792 29.1632C73.9025 29.3802 74.0911 29.5562 74.3391 29.691C74.5908 29.8267 74.9075 29.8967 75.2862 29.9004C75.6647 29.8956 76.0062 29.8082 76.3173 29.6338ZM73.1646 31.8354C72.7205 31.6887 72.3074 31.4606 71.9462 31.1628C71.5874 30.8669 71.2983 30.495 71.0997 30.0737C70.8956 29.6428 70.7881 29.1515 70.7825 28.5926C70.7905 28.0141 70.9114 27.5151 71.1497 27.0988C71.3868 26.6854 71.7131 26.3305 72.1047 26.06C72.513 25.7768 72.9586 25.5521 73.4287 25.3922C73.9094 25.2263 74.403 25.1011 74.9045 25.0178C75.405 24.9351 75.873 24.8786 76.3165 24.8532C76.6912 24.8269 77.0668 24.814 77.4424 24.8145H77.7945V24.7271C77.7971 23.9384 77.6328 23.3745 77.2961 23.0364C76.9625 22.698 76.4385 22.5342 75.7275 22.5432C75.578 22.5431 75.4286 22.5527 75.2804 22.5721C75.1141 22.5932 74.9504 22.6312 74.7918 22.6855C74.6445 22.7302 74.5091 22.8074 74.3956 22.9115C74.2894 23.0077 74.2353 23.1315 74.2326 23.286V23.6154C74.0998 24.1984 73.5716 24.634 72.944 24.634C72.2946 24.634 71.7502 24.1658 71.6425 23.5523L71.6435 22.6956C71.6478 22.2843 71.7545 21.9408 71.9581 21.6615C72.1609 21.3841 72.4277 21.162 72.7531 20.9956C73.0847 20.8247 73.4363 20.6962 73.7998 20.6132C74.1722 20.5289 74.5314 20.4735 74.8763 20.4441C75.2188 20.4163 75.5091 20.4033 75.7502 20.4054C76.681 20.4081 77.458 20.522 78.0818 20.7468C78.7049 20.972 79.2003 21.2858 79.5693 21.688C79.9351 22.0869 80.1955 22.5564 80.3545 23.0915C80.5111 23.631 80.5888 24.2098 80.5827 24.836V28.9872C80.5848 29.1417 80.6271 29.2602 80.709 29.3428C80.7927 29.425 80.9131 29.4668 81.0676 29.4676H81.388C81.964 29.5546 82.4035 30.0464 82.4035 30.6392C82.4035 31.2151 81.9915 31.6939 81.4445 31.8044H79.4425C79.0987 31.8015 78.8227 31.744 78.6127 31.6314C78.4017 31.5201 78.2503 31.3735 78.1566 31.1891C78.0581 31.0062 78.0124 30.8027 78.0147 30.5841C78.0147 30.4383 78.0176 30.3225 78.0256 30.2369C78.0311 30.1476 78.0361 30.1039 78.0361 30.097H77.9933C77.9933 30.106 77.9561 30.1728 77.8822 30.3027C77.8098 30.4333 77.6894 30.5958 77.5277 30.79C77.3671 30.9829 77.1545 31.1772 76.8917 31.3727C76.6292 31.5651 76.3067 31.7278 75.9298 31.8598C75.55 31.9907 75.1098 32.0601 74.6069 32.0652C74.117 32.0661 73.6301 31.9886 73.1646 31.8354Z" fill="white"/>
<path fill-rule="evenodd" clip-rule="evenodd" d="M83.1893 36.1294C82.8404 36.0181 82.5441 35.8909 82.3 35.7417C82.138 35.6471 81.982 35.5426 81.8328 35.4287C81.681 35.2577 81.5848 35.0443 81.5572 34.817C81.5295 34.5897 81.5717 34.3593 81.6781 34.1567C81.9334 33.6683 82.4921 33.442 83.1309 33.6357C83.2162 33.7009 83.3829 33.7884 83.5773 33.8647C83.7717 33.941 83.9814 33.9807 84.217 33.9858C84.6028 33.9858 84.9549 33.8694 85.2716 33.6381C85.5906 33.4041 85.8495 33.0487 86.0539 32.5728L86.4236 31.7245L85.1356 28.8456L82.706 23.4049C82.6418 23.2453 82.5657 23.1393 82.4767 23.0855C82.3851 23.0328 82.2654 23.0095 82.116 23.014C81.489 22.8961 81.083 22.4204 81.083 21.8514C81.083 21.2006 81.6136 20.6714 82.2689 20.6714L82.267 20.6706H83.623C84.0115 20.6661 84.3179 20.744 84.5442 20.9064C84.7708 21.0692 84.9546 21.3379 85.0899 21.711L86.5245 25.3492L87.2773 27.2503C87.3504 27.4456 87.4162 27.6563 87.4764 27.8844C87.5342 28.111 87.5815 28.3044 87.6174 28.4701C87.6523 28.6344 87.6689 28.7205 87.6689 28.7274H87.7146C87.7146 28.7205 87.7331 28.6346 87.7664 28.4703C87.8005 28.3044 87.8467 28.111 87.9021 27.8847C87.9595 27.6563 88.0183 27.4456 88.0841 27.2503L89.9905 21.711C90.1173 21.3379 90.3035 21.0692 90.5435 20.9064C90.7849 20.744 91.0969 20.6661 91.478 20.6706H92.8392V20.6714C93.4939 20.6714 94.0245 21.2006 94.0245 21.8514C94.0245 22.4201 93.6183 22.8961 92.981 23.014C92.8675 23.0095 92.7381 23.0328 92.6385 23.0855C92.5394 23.1393 92.4584 23.2453 92.3958 23.4049L88.3923 33.42C88.1261 34.0844 87.7849 34.6297 87.367 35.0551C86.9524 35.4814 86.4876 35.7965 85.9746 35.9998C85.4637 36.2044 84.9182 36.3082 84.368 36.3053C83.9283 36.299 83.5364 36.2407 83.1893 36.1294Z" fill="white"/>
<path fill-rule="evenodd" clip-rule="evenodd" d="M94.9862 30.9315H94.9677V19.2946C94.9677 19.1303 94.926 19.0084 94.8391 18.9289C94.7567 18.8475 94.6383 18.8064 94.4836 18.8088H94.2356C93.9555 18.7636 93.7006 18.6197 93.5166 18.4029C93.3327 18.1862 93.2318 17.9108 93.2319 17.6261C93.2319 16.9668 93.7681 16.432 94.4276 16.432V16.4299H96.2666C96.6099 16.4267 96.8949 16.4591 97.1144 16.529C97.3373 16.6016 97.4989 16.7296 97.6056 16.9159C97.7129 17.1009 97.7654 17.3651 97.7641 17.7067V24.8126H98.6021C98.7949 24.814 98.9868 24.7872 99.1718 24.7331C99.3683 24.678 99.531 24.5635 99.6591 24.3916L101.989 20.7698C102.431 20.2854 103.174 20.1948 103.721 20.584C103.955 20.751 104.128 20.9909 104.212 21.2665C104.296 21.5421 104.287 21.838 104.187 22.1081L102.215 25.0761C101.97 25.4219 101.77 25.6561 101.616 25.781C101.461 25.9058 101.383 25.9643 101.38 25.9564V26.0012C101.387 25.994 101.469 26.0478 101.625 26.1697C101.784 26.2906 101.965 26.5275 102.172 26.8826L103.448 29.3139C103.531 29.4761 103.643 29.5898 103.781 29.6478C103.918 29.7088 104.115 29.7371 104.375 29.7334H104.663C105.219 29.8357 105.645 30.327 105.645 30.9129C105.645 31.0852 105.609 31.2487 105.541 31.3955C105.462 31.5774 105.338 31.7366 105.182 31.8585C105.025 31.9805 104.841 32.0616 104.646 32.0943H103.053C102.74 32.0975 102.48 32.0718 102.271 32.0228C102.065 31.9708 101.884 31.8783 101.733 31.7379C101.582 31.5961 101.432 31.3926 101.29 31.1247L101.195 30.944L99.4188 27.5888C99.3005 27.3988 99.1433 27.2777 98.9489 27.2289C98.7633 27.1828 98.5721 27.1633 98.3811 27.1711H97.7638V31.1424C97.713 31.4733 97.5457 31.7749 97.2923 31.9927C97.0389 32.2105 96.7162 32.33 96.3825 32.3296C96.1993 32.3298 96.0179 32.2938 95.8485 32.2237C95.6792 32.1535 95.5253 32.0505 95.3956 31.9207C95.266 31.7908 95.1631 31.6366 95.0928 31.4668C95.0225 31.2971 94.9863 31.1151 94.9862 30.9312V30.9315ZM108.161 26.2349C108.168 25.5464 108.319 24.9409 108.616 24.4223C108.911 23.9021 109.307 23.4964 109.801 23.2049C110.295 22.9131 110.842 22.7661 111.445 22.7618C112.054 22.7661 112.606 22.9129 113.105 23.2049C113.602 23.4964 113.998 23.9021 114.295 24.4223C114.591 24.9409 114.744 25.5464 114.75 26.2349C114.744 26.9316 114.59 27.539 114.295 28.0581C113.998 28.5767 113.602 28.9811 113.105 29.2692C112.606 29.558 112.053 29.703 111.445 29.7091C110.842 29.703 110.295 29.558 109.801 29.2692C109.307 28.9811 108.911 28.5767 108.616 28.0581C108.319 27.539 108.168 26.9316 108.161 26.2349ZM105.381 26.2349C105.388 27.0948 105.545 27.8821 105.854 28.5921C106.166 29.3023 106.596 29.9187 107.149 30.4352C107.7 30.9532 108.344 31.3539 109.076 31.6351C109.808 31.9176 110.597 32.0617 111.445 32.0649C112.298 32.062 113.092 31.9176 113.826 31.6351C114.562 31.3542 115.207 30.9532 115.76 30.4352C116.314 29.9187 116.747 29.3025 117.058 28.5921C117.367 27.8819 117.526 27.0948 117.53 26.2349C117.526 25.379 117.367 24.5972 117.058 23.8857C116.756 23.1878 116.314 22.5598 115.759 22.0405C115.207 21.5203 114.562 21.1199 113.826 20.8366C113.092 20.5522 112.298 20.4081 111.445 20.4049C110.597 20.4081 109.808 20.5522 109.076 20.8369C108.344 21.1199 107.7 21.5203 107.149 22.0405C106.596 22.5612 106.166 23.1755 105.854 23.8857C105.545 24.5975 105.388 25.379 105.381 26.2349ZM123.306 31.9894C122.882 31.9305 122.466 31.8225 122.068 31.6674C121.649 31.5089 121.263 31.2763 120.907 30.9678C120.551 30.6609 120.263 30.2557 120.046 29.7565C119.826 29.2546 119.714 28.6355 119.707 27.8949V23.0689H118.783C118.227 23.0016 117.794 22.5318 117.794 21.965C117.794 21.4291 118.178 20.9818 118.689 20.8742H119.776L119.774 18.7606C119.819 18.052 120.421 17.4899 121.153 17.4899C121.837 17.4899 122.402 17.9756 122.516 18.6143V20.8742H124.675C125.187 20.9818 125.57 21.4291 125.57 21.965C125.57 22.5321 125.138 23.0016 124.58 23.0689H122.516V27.5456C122.521 27.9987 122.601 28.3644 122.757 28.6408C122.911 28.9207 123.107 29.129 123.344 29.2734C123.579 29.4165 123.824 29.5119 124.076 29.5636C124.327 29.6113 124.553 29.6335 124.752 29.6314C124.908 29.6296 125.032 29.6229 125.069 29.6152C125.593 29.558 126.188 30.0573 126.242 30.7224C126.289 31.3067 125.906 31.8283 125.19 32.0124C125.156 32.0169 125.098 32.0246 125.02 32.0336C124.864 32.053 124.656 32.0633 124.398 32.0644C124.077 32.0694 123.713 32.044 123.306 31.9894Z" fill="white"/>
</svg>
