<svg width="131" height="53" viewBox="0 0 131 53" fill="none" xmlns="http://www.w3.org/2000/svg">
<path fill-rule="evenodd" clip-rule="evenodd" d="M36.042 23.2648C35.9887 23.2054 35.9301 23.1511 35.8668 23.1027C35.9841 23.4657 35.9231 23.8947 35.6825 24.1886C35.3629 24.5763 34.8497 24.5763 34.5362 24.1886C34.2505 23.8338 34.2293 23.276 34.4705 22.8872C33.6686 23.1443 32.9555 24.0241 33.0908 25.5619C34.8112 25.6965 36.7001 24.5556 36.042 23.2648ZM31.8093 25.6119C31.8206 24.9123 31.6939 24.2427 31.4469 23.6483C31.396 23.7417 31.3335 23.8284 31.261 23.9061C30.7998 24.3998 30.0511 24.3998 29.5926 23.9061C29.1365 23.4127 29.1399 22.6111 29.6031 22.1169C29.7172 21.995 29.8488 21.9035 29.9901 21.8439C28.9547 21.1732 27.5507 21.0608 25.9724 21.9035C24.9339 24.5821 28.4344 26.2371 31.8093 25.6119ZM32.992 26.4846C32.834 26.1666 31.7831 26.0995 31.4543 26.324C31.458 26.7851 31.8328 27.1852 32.151 27.3442C32.4817 27.1972 32.8494 26.9091 32.992 26.4846ZM18.3472 36.2869C17.7519 35.4188 17.8845 33.6989 18.7655 33.0831C19.5779 32.5165 20.992 32.5557 21.6615 33.7429C23.4232 36.2111 24.3227 38.8686 26.3876 39.8173C31.4934 42.1644 37.1174 39.839 41.2616 32.6445L41.8382 31.6412C45.0572 26.0574 45.1869 21.3176 43.3125 18.0642C41.438 14.8113 37.2775 12.5538 30.8458 12.5538L29.6874 12.5562C22.1668 12.5562 17.445 15.6156 16.2808 20.4344C15.7512 22.6272 16.1062 25.1845 19.116 24.7968L19.1757 24.7748C20.2329 24.6707 21.319 24.6166 22.4269 24.6166C22.6419 24.6166 22.8545 24.6203 23.07 24.6243C23.0404 24.4314 23.0298 24.236 23.0383 24.041C23.0756 22.534 24.2335 21.3097 25.7482 20.614C26.264 18.6666 26.625 17.508 27.7507 15.9797C29.1586 17.0161 30.3411 18.6944 30.771 19.9317C31.2412 19.9878 31.6973 20.0753 32.1352 20.1877C32.4186 20.2632 32.6853 20.3448 32.9407 20.4325C33.5569 19.8018 34.4874 19.2461 35.5121 18.8319C36.0264 20.1021 36.337 21.338 36.1901 22.5488C36.8221 23.307 37.1407 24.1187 37.1341 24.9717C37.1135 25.9376 36.6787 26.7999 35.8425 27.5438C35.7924 27.587 35.7406 27.6291 35.6888 27.6715C36.6521 28.206 37.5136 28.7996 38.2526 29.4417C40.1241 31.0646 38.5502 32.1447 33.9317 29.8901C38.8603 32.5025 37.9848 34.2594 35.987 33.4684C32.759 32.1937 28.8166 31.4411 24.5554 31.4411C18.2141 31.4411 12.4052 32.8099 8.80187 35.41C7.40683 36.417 6.37547 36.6442 6.30601 35.8102C6.16946 34.2472 7.86691 32.4593 11.9218 30.0446C9.43891 30.4818 7.77395 31.7438 6.79435 32.371C4.3756 33.9218 4.11096 31.6667 5.98062 30.0178C7.92819 28.0621 10.9739 26.4859 14.6546 25.5536C13.3583 24.3678 13.0728 22.0493 13.6064 19.8153C15.0503 13.7866 20.8594 9.80654 29.6855 9.80654L30.8429 9.80469C45.3614 9.80469 51.468 20.4259 44.216 33.015L43.6368 34.018C36.9006 45.7127 25.7352 46.6296 18.3472 36.2869ZM59.7537 29.4115C60.1724 29.1396 60.5088 28.7448 60.7621 28.2288C61.0138 27.7083 61.1422 27.0784 61.1485 26.3351C61.1464 25.6151 61.0281 24.9932 60.7975 24.4658C60.5648 23.9395 60.246 23.5343 59.8348 23.2428C59.4241 22.955 58.9458 22.8077 58.3991 22.8029C57.9238 22.8001 57.4566 22.927 57.0476 23.17C56.6293 23.4164 56.2896 23.8033 56.0292 24.3264C55.7707 24.8511 55.6383 25.525 55.6309 26.3537C55.6309 26.7936 55.6867 27.2202 55.8013 27.6289C55.9149 28.042 56.0839 28.4095 56.3131 28.7381C56.5328 29.0611 56.824 29.3287 57.1638 29.5199C57.5035 29.7149 57.9007 29.814 58.3566 29.8172C58.8695 29.8156 59.3354 29.6805 59.7537 29.4115ZM52.97 35.0687V23.5325C52.9692 23.3663 52.9275 23.2428 52.8456 23.1644C52.7637 23.0844 52.6457 23.0459 52.4935 23.0467H52.3052C51.7081 22.9935 51.2377 22.481 51.2377 21.855C51.2377 21.245 51.6867 20.7394 52.2677 20.6678H54.0719C54.5758 20.6742 54.9329 20.7781 55.1474 20.9763C55.3589 21.1761 55.463 21.4337 55.4587 21.748V22.1871H55.501C55.4991 22.1831 55.5385 22.1208 55.6177 22.0016C55.697 21.8831 55.8206 21.7366 55.993 21.5609C56.1621 21.3855 56.3866 21.2087 56.662 21.033C56.9325 20.8565 57.265 20.7081 57.6535 20.5912C58.0418 20.4707 58.4908 20.4087 59.0058 20.4047C60.0049 20.4126 60.8725 20.6628 61.6047 21.1546C62.3384 21.6497 62.9041 22.3336 63.3066 23.2142C63.7059 24.093 63.9096 25.1188 63.9151 26.2898C63.9077 27.4865 63.6859 28.524 63.2487 29.4033C62.8106 30.282 62.2142 30.9604 61.4565 31.4417C60.6953 31.9232 59.8288 32.1696 58.8544 32.1747C58.3104 32.1678 57.836 32.0904 57.4398 31.9436C57.04 31.7968 56.7157 31.6261 56.4547 31.4366C56.1988 31.2458 56.0052 31.0757 55.8816 30.9284C55.7577 30.7816 55.6941 30.7063 55.6946 30.6981H55.6502C55.6537 30.7023 55.6608 30.794 55.6735 30.9673C55.6856 31.1422 55.6941 31.3786 55.6946 31.6669V35.0767C55.6127 35.7707 55.0346 36.3047 54.3344 36.3047C53.6279 36.3047 53.0503 35.7667 52.97 35.0687ZM65.8027 31.7128C65.5663 31.4735 65.4533 31.0927 65.4559 30.569V19.2885C65.4557 19.1242 65.4126 19.0028 65.331 18.9233C65.2465 18.8425 65.129 18.8014 64.9776 18.8036H64.6393C64.0773 18.7119 63.651 18.2206 63.651 17.6232C63.651 16.965 64.1779 16.431 64.8289 16.431V16.4297H66.7374C67.2453 16.4265 67.6203 16.5463 67.8604 16.7866C68.1013 17.0336 68.217 17.4107 68.2149 17.9235V29.2234C68.2159 29.3816 68.2584 29.5 68.339 29.5824C68.4227 29.6648 68.5397 29.7072 68.6948 29.708H69.0186C69.292 29.7596 69.5389 29.9056 69.7163 30.1207C69.8937 30.3359 69.9904 30.6065 69.9897 30.8857C69.9897 31.4767 69.5626 31.9706 69.004 32.0647H66.9334C66.4149 32.0676 66.0386 31.9491 65.8027 31.7128ZM76.3168 29.6333C76.6292 29.4609 76.9033 29.2264 77.1223 28.944C77.3474 28.6608 77.5249 28.3426 77.6479 28.002C77.7731 27.6596 77.836 27.3172 77.836 26.9746V26.7114H77.3542C76.9837 26.7074 76.5846 26.7279 76.1552 26.7657C75.7239 26.8076 75.3179 26.8855 74.9302 27.0042C74.5427 27.1214 74.225 27.2965 73.976 27.5316C73.7303 27.7661 73.6004 28.0738 73.593 28.4599C73.593 28.7116 73.6561 28.9459 73.7787 29.1627C73.902 29.3797 74.0906 29.5557 74.3386 29.6906C74.5903 29.8262 74.907 29.8962 75.2857 29.8999C75.6642 29.8951 76.0057 29.8077 76.3168 29.6333ZM73.1641 31.8349C72.72 31.6882 72.3069 31.4602 71.9457 31.1624C71.5869 30.8664 71.2979 30.4945 71.0992 30.0732C70.8951 29.6423 70.7876 29.151 70.782 28.5921C70.79 28.0136 70.9109 27.5146 71.1492 27.0983C71.3863 26.6849 71.7126 26.33 72.1042 26.0595C72.5125 25.7763 72.9581 25.5516 73.4282 25.3917C73.9089 25.2258 74.4026 25.1006 74.9041 25.0173C75.4045 24.9346 75.8726 24.8782 76.316 24.8527C76.6907 24.8264 77.0663 24.8135 77.4419 24.814H77.794V24.7266C77.7966 23.9379 77.6323 23.374 77.2956 23.0359C76.962 22.6975 76.438 22.5337 75.727 22.5427C75.5775 22.5426 75.4282 22.5522 75.2799 22.5716C75.1136 22.5927 74.9499 22.6307 74.7913 22.685C74.644 22.7297 74.5087 22.8069 74.3951 22.9111C74.2889 23.0072 74.2348 23.131 74.2322 23.2855V23.6149C74.0993 24.1979 73.5711 24.6336 72.9435 24.6336C72.2941 24.6336 71.7498 24.1653 71.642 23.5518L71.6431 22.6951C71.6473 22.2838 71.754 21.9404 71.9576 21.6611C72.1604 21.3836 72.4272 21.1615 72.7526 20.9951C73.0842 20.8242 73.4358 20.6957 73.7993 20.6127C74.1717 20.5284 74.5309 20.4731 74.8758 20.4436C75.2184 20.4158 75.5086 20.4028 75.7497 20.405C76.6805 20.4076 77.4575 20.5216 78.0813 20.7463C78.7044 20.9715 79.1999 21.2853 79.5688 21.6876C79.9346 22.0864 80.195 22.556 80.354 23.091C80.5107 23.6305 80.5883 24.2093 80.5822 24.8355V28.9867C80.5843 29.1412 80.6266 29.2597 80.7085 29.3423C80.7922 29.4245 80.9126 29.4664 81.0671 29.4672H81.3875C81.9635 29.5541 82.403 30.0459 82.403 30.6387C82.403 31.2146 81.991 31.6934 81.444 31.8039H79.442C79.0982 31.801 78.8222 31.7435 78.6122 31.6309C78.4012 31.5196 78.2498 31.373 78.1561 31.1886C78.0576 31.0057 78.0119 30.8022 78.0143 30.5836C78.0143 30.4379 78.0172 30.322 78.0251 30.2365C78.0306 30.1471 78.0356 30.1034 78.0356 30.0965H77.9929C77.9929 30.1055 77.9556 30.1723 77.8817 30.3022C77.8093 30.4328 77.6889 30.5953 77.5272 30.7895C77.3666 30.9824 77.154 31.1767 76.8912 31.3722C76.6287 31.5646 76.3062 31.7273 75.9293 31.8593C75.5496 31.9902 75.1093 32.0597 74.6064 32.0647C74.1165 32.0656 73.6296 31.9881 73.1641 31.8349Z" fill="#653EB3"/>
<path fill-rule="evenodd" clip-rule="evenodd" d="M83.1883 36.1289C82.8394 36.0176 82.5431 35.8904 82.2991 35.7412C82.137 35.6466 81.981 35.5421 81.8318 35.4282C81.68 35.2572 81.5838 35.0438 81.5562 34.8165C81.5285 34.5892 81.5707 34.3588 81.6771 34.1562C81.9325 33.6678 82.4911 33.4415 83.13 33.6352C83.2153 33.7004 83.3819 33.7879 83.5763 33.8642C83.7707 33.9405 83.9804 33.9803 84.216 33.9853C84.6019 33.9853 84.9539 33.869 85.2706 33.6376C85.5896 33.4036 85.8485 33.0483 86.0529 32.5723L86.4227 31.7241L85.1346 28.8451L82.705 23.4044C82.6408 23.2448 82.5648 23.1388 82.4758 23.085C82.3841 23.0323 82.2645 23.009 82.115 23.0135C81.488 22.8956 81.082 22.4199 81.082 21.8509C81.082 21.2001 81.6126 20.6709 82.2679 20.6709L82.2661 20.6701H83.622C84.0105 20.6656 84.3169 20.7435 84.5432 20.906C84.7698 21.0687 84.9537 21.3374 85.0889 21.7105L86.5236 25.3487L87.2763 27.2498C87.3494 27.4451 87.4152 27.6558 87.4754 27.8839C87.5333 28.1105 87.5805 28.304 87.6164 28.4696C87.6513 28.6339 87.668 28.72 87.668 28.7269H87.7136C87.7136 28.72 87.7321 28.6342 87.7654 28.4699C87.7995 28.304 87.8457 28.1105 87.9012 27.8842C87.9585 27.6558 88.0174 27.4451 88.0831 27.2498L89.9895 21.7105C90.1163 21.3374 90.3025 21.0687 90.5426 20.906C90.784 20.7435 91.0959 20.6656 91.477 20.6701H92.8382V20.6709C93.493 20.6709 94.0236 21.2001 94.0236 21.8509C94.0236 22.4196 93.6174 22.8956 92.9801 23.0135C92.8665 23.009 92.7371 23.0323 92.6375 23.085C92.5385 23.1388 92.4574 23.2448 92.3948 23.4044L88.3914 33.4195C88.1251 34.0839 87.7839 34.6292 87.3661 35.0546C86.9514 35.481 86.4866 35.796 85.9737 35.9993C85.4627 36.204 84.9172 36.3077 84.3671 36.3048C83.9273 36.2985 83.5354 36.2402 83.1883 36.1289Z" fill="#653EB3"/>
<path fill-rule="evenodd" clip-rule="evenodd" d="M94.9857 30.9315H94.9672V19.2946C94.9672 19.1303 94.9255 19.0084 94.8386 18.9289C94.7562 18.8475 94.6378 18.8064 94.4831 18.8088H94.2351C93.955 18.7636 93.7001 18.6197 93.5162 18.4029C93.3322 18.1862 93.2313 17.9108 93.2314 17.6261C93.2314 16.9668 93.7676 16.432 94.4271 16.432V16.4299H96.2661C96.6094 16.4267 96.8944 16.4591 97.1139 16.529C97.3368 16.6016 97.4985 16.7296 97.6052 16.9159C97.7124 17.1009 97.7649 17.3651 97.7636 17.7067V24.8126H98.6017C98.7944 24.814 98.9863 24.7872 99.1713 24.7331C99.3678 24.678 99.5305 24.5635 99.6586 24.3916L101.988 20.7698C102.43 20.2854 103.174 20.1948 103.72 20.584C103.954 20.751 104.127 20.9909 104.211 21.2665C104.296 21.5421 104.287 21.838 104.186 22.1081L102.215 25.0761C101.97 25.4219 101.77 25.6561 101.615 25.781C101.461 25.9058 101.382 25.9643 101.379 25.9564V26.0012C101.386 25.994 101.469 26.0478 101.624 26.1697C101.784 26.2906 101.964 26.5275 102.171 26.8826L103.448 29.3139C103.53 29.4761 103.642 29.5898 103.78 29.6478C103.918 29.7088 104.114 29.7371 104.375 29.7334H104.663C105.219 29.8357 105.645 30.327 105.645 30.9129C105.645 31.0852 105.609 31.2487 105.541 31.3955C105.461 31.5774 105.337 31.7366 105.181 31.8585C105.025 31.9805 104.84 32.0616 104.645 32.0943H103.052C102.74 32.0975 102.479 32.0718 102.271 32.0228C102.064 31.9708 101.884 31.8783 101.732 31.7379C101.581 31.5961 101.432 31.3926 101.29 31.1247L101.194 30.944L99.4183 27.5888C99.3 27.3988 99.1428 27.2777 98.9484 27.2289C98.7628 27.1828 98.5716 27.1633 98.3806 27.1711H97.7634V31.1424C97.7125 31.4733 97.5452 31.7749 97.2918 31.9927C97.0384 32.2105 96.7157 32.33 96.382 32.3296C96.1988 32.3298 96.0174 32.2938 95.848 32.2237C95.6787 32.1535 95.5248 32.0505 95.3951 31.9207C95.2655 31.7908 95.1626 31.6366 95.0923 31.4668C95.0221 31.2971 94.9858 31.1151 94.9857 30.9312V30.9315ZM108.16 26.2349C108.167 25.5464 108.318 24.9409 108.615 24.4223C108.911 23.9021 109.307 23.4964 109.8 23.2049C110.294 22.9131 110.842 22.7661 111.445 22.7618C112.053 22.7661 112.606 22.9129 113.104 23.2049C113.602 23.4964 113.997 23.9021 114.294 24.4223C114.59 24.9409 114.743 25.5464 114.75 26.2349C114.743 26.9316 114.59 27.539 114.294 28.0581C113.997 28.5767 113.602 28.9811 113.104 29.2692C112.606 29.558 112.053 29.703 111.445 29.7091C110.842 29.703 110.294 29.558 109.8 29.2692C109.307 28.9811 108.911 28.5767 108.615 28.0581C108.318 27.539 108.167 26.9316 108.16 26.2349ZM105.381 26.2349C105.387 27.0948 105.544 27.8821 105.854 28.5921C106.165 29.3023 106.596 29.9187 107.148 30.4352C107.7 30.9532 108.343 31.3539 109.076 31.6351C109.807 31.9176 110.597 32.0617 111.445 32.0649C112.298 32.062 113.092 31.9176 113.826 31.6351C114.562 31.3542 115.207 30.9532 115.759 30.4352C116.314 29.9187 116.746 29.3025 117.058 28.5921C117.367 27.8819 117.525 27.0948 117.53 26.2349C117.525 25.379 117.367 24.5972 117.058 23.8857C116.755 23.1878 116.313 22.5598 115.759 22.0405C115.207 21.5203 114.562 21.1199 113.826 20.8366C113.092 20.5522 112.298 20.4081 111.445 20.4049C110.597 20.4081 109.807 20.5522 109.076 20.8369C108.343 21.1199 107.7 21.5203 107.148 22.0405C106.596 22.5612 106.165 23.1755 105.854 23.8857C105.544 24.5975 105.387 25.379 105.381 26.2349ZM123.305 31.9894C122.881 31.9305 122.466 31.8225 122.067 31.6674C121.649 31.5089 121.263 31.2763 120.907 30.9678C120.55 30.6609 120.263 30.2557 120.045 29.7565C119.825 29.2546 119.714 28.6355 119.707 27.8949V23.0689H118.783C118.226 23.0016 117.794 22.5318 117.794 21.965C117.794 21.4291 118.178 20.9818 118.688 20.8742H119.775L119.773 18.7606C119.819 18.052 120.421 17.4899 121.152 17.4899C121.836 17.4899 122.402 17.9756 122.516 18.6143V20.8742H124.675C125.187 20.9818 125.57 21.4291 125.57 21.965C125.57 22.5321 125.138 23.0016 124.58 23.0689H122.516V27.5456C122.521 27.9987 122.6 28.3644 122.757 28.6408C122.91 28.9207 123.106 29.129 123.343 29.2734C123.579 29.4165 123.823 29.5119 124.075 29.5636C124.326 29.6113 124.552 29.6335 124.751 29.6314C124.907 29.6296 125.031 29.6229 125.069 29.6152C125.592 29.558 126.188 30.0573 126.242 30.7224C126.288 31.3067 125.906 31.8283 125.189 32.0124C125.155 32.0169 125.097 32.0246 125.02 32.0336C124.863 32.053 124.656 32.0633 124.397 32.0644C124.076 32.0694 123.713 32.044 123.305 31.9894Z" fill="#653EB3"/>
</svg>
